<?xml version="1.0" encoding="UTF-8" standalone="no"?>
<svg
   xmlns:dc="http://purl.org/dc/elements/1.1/"
   xmlns:cc="http://creativecommons.org/ns#"
   xmlns:rdf="http://www.w3.org/1999/02/22-rdf-syntax-ns#"
   xmlns:svg="http://www.w3.org/2000/svg"
   xmlns="http://www.w3.org/2000/svg"
   id="svg3888"
   version="1.2"
   viewBox="0 0 392 49"
   height="49pt"
   width="392pt">
  <metadata
     id="metadata3894">
    <rdf:RDF>
      <cc:Work
         rdf:about="">
        <dc:format>image/svg+xml</dc:format>
        <dc:type
           rdf:resource="http://purl.org/dc/dcmitype/StillImage" />
        <dc:title></dc:title>
      </cc:Work>
    </rdf:RDF>
  </metadata>
  <defs
     id="defs3892" />
  <g
     id="surface44198">
    <path
       id="path3855"
       d="M 49.023438 2.457031 L 46.507812 2.457031 L 35.273438 37.503906 L 24.476562 1.675781 L 13.617188 37.503906 L 2.398438 2.457031 L 0.0078125 2.457031 L 13.742188 45.894531 L 24.476562 9.957031 L 35.164062 45.894531 Z M 49.023438 2.457031 "
       style=" stroke:none;fill-rule:nonzero;fill:rgb(0%,0%,0%);fill-opacity:1;" />
    <path
       id="path3857"
       d="M 73.28125 32.394531 C 73.28125 28.761719 72.0625 25.800781 69.625 23.519531 C 67.226562 21.238281 64.1875 20.097656 60.5 20.097656 C 56.78125 20.097656 53.703125 21.316406 51.265625 23.753906 C 48.867188 26.160156 47.671875 29.222656 47.671875 32.941406 C 47.671875 36.621094 48.890625 39.675781 51.328125 42.113281 C 53.722656 44.5625 56.78125 45.785156 60.5 45.785156 C 62.0625 45.785156 63.460938 45.582031 64.703125 45.175781 C 67.941406 44.136719 70.34375 42.136719 71.90625 39.175781 L 69.6875 38.160156 C 68.320312 40.359375 66.78125 41.816406 65.0625 42.535156 C 63.707031 43.097656 62.1875 43.378906 60.5 43.378906 C 57.21875 43.378906 54.640625 42.378906 52.765625 40.378906 C 50.960938 38.421875 50.0625 35.761719 50.0625 32.394531 Z M 70.53125 30.066406 L 50.421875 30.066406 C 52.023438 25.027344 55.382812 22.503906 60.5 22.503906 C 62.945312 22.503906 65.109375 23.183594 66.984375 24.535156 C 68.941406 25.941406 70.125 27.785156 70.53125 30.066406 Z M 70.53125 30.066406 "
       style=" stroke:none;fill-rule:nonzero;fill:rgb(0%,0%,0%);fill-opacity:1;" />
    <path
       id="path3859"
       d="M 93.554688 38.519531 C 93.554688 36.28125 92.695312 34.5 90.976562 33.175781 C 90.527344 32.863281 89.859375 32.5 88.976562 32.082031 C 88.101562 31.65625 86.984375 31.203125 85.632812 30.722656 C 84.070312 30.203125 82.929688 29.660156 82.210938 29.097656 C 81.324219 28.378906 80.882812 27.464844 80.882812 26.347656 C 80.882812 23.828125 82.324219 22.566406 85.210938 22.566406 C 87.324219 22.566406 89.0625 23.246094 90.429688 24.597656 L 92.226562 23.035156 C 90.308594 21.121094 87.96875 20.160156 85.210938 20.160156 C 83.210938 20.160156 81.589844 20.78125 80.351562 22.019531 C 79.070312 23.21875 78.429688 24.660156 78.429688 26.347656 C 78.429688 28.308594 79.070312 29.808594 80.351562 30.847656 C 81.226562 31.566406 82.664062 32.285156 84.664062 33.003906 C 85.746094 33.402344 86.65625 33.75 87.398438 34.050781 C 88.136719 34.355469 88.710938 34.625 89.117188 34.863281 C 90.429688 35.90625 91.085938 37.125 91.085938 38.519531 C 91.085938 41.71875 89.203125 43.316406 85.445312 43.316406 C 83.726562 43.316406 82.367188 42.9375 81.367188 42.175781 C 80.40625 41.5 79.589844 40.542969 78.914062 39.300781 L 76.804688 40.566406 C 78.730469 44.046875 81.609375 45.785156 85.445312 45.785156 C 87.683594 45.785156 89.605469 45.105469 91.210938 43.738281 C 92.773438 42.417969 93.554688 40.675781 93.554688 38.519531 Z M 93.554688 38.519531 "
       style=" stroke:none;fill-rule:nonzero;fill:rgb(0%,0%,0%);fill-opacity:1;" />
    <path
       id="path3861"
       d="M 108.3125 22.988281 L 108.3125 20.519531 L 102.5625 20.519531 L 102.5625 9.660156 L 100.09375 9.660156 L 100.09375 20.519531 L 96.734375 20.519531 L 96.734375 22.988281 L 100.09375 22.988281 L 100.09375 45.300781 L 102.5625 45.300781 L 102.5625 22.988281 Z M 108.3125 22.988281 "
       style=" stroke:none;fill-rule:nonzero;fill:rgb(0%,0%,0%);fill-opacity:1;" />
    <path
       id="path3863"
       d="M 138.5625 32.941406 C 138.5625 29.339844 137.316406 26.296875 134.828125 23.816406 C 132.390625 21.378906 129.375 20.160156 125.78125 20.160156 C 121.613281 20.160156 118.234375 21.824219 115.640625 25.144531 L 115.640625 0.894531 L 113.171875 0.894531 L 113.171875 45.300781 L 115.640625 45.300781 L 115.640625 40.738281 C 118.273438 44.0625 121.65625 45.722656 125.78125 45.722656 C 129.375 45.722656 132.410156 44.484375 134.890625 42.003906 C 137.335938 39.566406 138.5625 36.546875 138.5625 32.941406 Z M 136.15625 32.941406 C 136.15625 35.816406 135.132812 38.277344 133.09375 40.316406 C 131.09375 42.316406 128.65625 43.316406 125.78125 43.316406 C 122.9375 43.316406 120.492188 42.300781 118.453125 40.269531 C 116.410156 38.230469 115.390625 35.785156 115.390625 32.941406 C 115.390625 30.058594 116.410156 27.597656 118.453125 25.566406 C 120.453125 23.566406 122.894531 22.566406 125.78125 22.566406 C 128.613281 22.566406 131.050781 23.589844 133.09375 25.628906 C 135.132812 27.660156 136.15625 30.097656 136.15625 32.941406 Z M 136.15625 32.941406 "
       style=" stroke:none;fill-rule:nonzero;fill:rgb(0%,0%,0%);fill-opacity:1;" />
    <path
       id="path3865"
       d="M 168.164062 45.300781 L 168.164062 20.519531 L 165.710938 20.519531 L 165.710938 24.847656 C 163.0625 21.722656 159.761719 20.160156 155.804688 20.160156 C 152.210938 20.160156 149.171875 21.402344 146.695312 23.878906 C 144.246094 26.316406 143.023438 29.339844 143.023438 32.941406 C 143.023438 36.546875 144.261719 39.589844 146.742188 42.066406 C 149.1875 44.503906 152.210938 45.722656 155.804688 45.722656 C 159.804688 45.722656 163.105469 44.160156 165.710938 41.035156 L 165.710938 45.300781 Z M 166.195312 32.941406 C 166.195312 35.816406 165.171875 38.277344 163.132812 40.316406 C 161.132812 42.316406 158.6875 43.316406 155.804688 43.316406 C 152.96875 43.316406 150.53125 42.300781 148.492188 40.269531 C 146.449219 38.230469 145.429688 35.785156 145.429688 32.941406 C 145.429688 30.058594 146.449219 27.597656 148.492188 25.566406 C 150.492188 23.566406 152.929688 22.566406 155.804688 22.566406 C 158.648438 22.566406 161.089844 23.589844 163.132812 25.628906 C 165.171875 27.660156 166.195312 30.097656 166.195312 32.941406 Z M 166.195312 32.941406 "
       style=" stroke:none;fill-rule:nonzero;fill:rgb(0%,0%,0%);fill-opacity:1;" />
    <path
       id="path3867"
       d="M 195.578125 45.363281 L 195.578125 30.175781 C 195.578125 23.5 192.316406 20.160156 185.796875 20.160156 C 182.359375 20.160156 179.898438 21.378906 178.421875 23.816406 L 178.421875 0.894531 L 175.953125 0.894531 L 175.953125 45.300781 L 178.421875 45.300781 L 178.421875 29.160156 C 178.421875 27.160156 179.160156 25.5625 180.640625 24.363281 C 182.078125 23.167969 183.796875 22.566406 185.796875 22.566406 C 190.671875 22.566406 193.109375 25.1875 193.109375 30.425781 L 193.109375 45.363281 Z M 195.578125 45.363281 "
       style=" stroke:none;fill-rule:nonzero;fill:rgb(0%,0%,0%);fill-opacity:1;" />
    <path
       id="path3869"
       d="M 221.914062 45.300781 L 221.914062 30.238281 C 221.914062 27.082031 221.09375 24.625 219.460938 22.863281 C 217.824219 21.105469 215.464844 20.222656 212.382812 20.222656 C 208.734375 20.222656 206.355469 21.324219 205.242188 23.519531 L 205.242188 20.519531 L 202.773438 20.519531 L 202.773438 45.300781 L 205.242188 45.300781 L 205.242188 30.238281 C 205.242188 27.886719 205.859375 26.027344 207.101562 24.660156 C 208.296875 23.296875 210.058594 22.613281 212.382812 22.613281 C 217.101562 22.613281 219.460938 25.238281 219.460938 30.488281 L 219.460938 45.300781 Z M 221.914062 45.300781 "
       style=" stroke:none;fill-rule:nonzero;fill:rgb(0%,0%,0%);fill-opacity:1;" />
    <path
       id="path3871"
       d="M 229.125 48.066406 L 231.234375 48.066406 L 231.234375 0.00390625 L 229.125 0.00390625 Z M 229.125 48.066406 "
       style=" stroke:none;fill-rule:nonzero;fill:rgb(100%,0%,0%);fill-opacity:1;" />
    <path
       id="path3873"
       d="M 261.34375 34.207031 C 261.34375 30.800781 260.179688 27.957031 257.859375 25.675781 C 257.015625 24.84375 255.910156 24.015625 254.546875 23.191406 C 253.191406 22.371094 251.578125 21.542969 249.703125 20.707031 C 246.703125 19.34375 244.703125 18.261719 243.703125 17.457031 C 241.941406 15.9375 241.0625 14.15625 241.0625 12.113281 C 241.0625 9.84375 241.898438 8.003906 243.578125 6.597656 C 245.140625 5.277344 247.097656 4.613281 249.453125 4.613281 C 251.691406 4.613281 253.515625 5.058594 254.921875 5.941406 C 256.035156 6.578125 256.992188 7.558594 257.796875 8.878906 L 260.140625 7.863281 C 258.054688 4.105469 254.492188 2.222656 249.453125 2.222656 C 246.421875 2.222656 243.863281 3.144531 241.78125 4.988281 C 239.65625 6.78125 238.59375 9.15625 238.59375 12.113281 C 238.59375 15.082031 239.632812 17.464844 241.71875 19.253906 C 242.957031 20.378906 245.273438 21.703125 248.671875 23.222656 C 250.472656 24.027344 251.953125 24.75 253.109375 25.394531 C 254.273438 26.03125 255.140625 26.605469 255.703125 27.113281 C 257.816406 29 258.875 31.363281 258.875 34.207031 C 258.875 37.207031 257.972656 39.484375 256.171875 41.035156 C 254.421875 42.558594 252.003906 43.316406 248.921875 43.316406 C 243.515625 43.316406 240.113281 40.761719 238.71875 35.644531 L 236.265625 36.488281 C 238.140625 42.6875 242.359375 45.785156 248.921875 45.785156 C 251.035156 45.785156 252.875 45.503906 254.4375 44.941406 C 259.039062 43.222656 261.34375 39.644531 261.34375 34.207031 Z M 261.34375 34.207031 "
       style=" stroke:none;fill-rule:nonzero;fill:rgb(0%,0%,0%);fill-opacity:1;" />
    <path
       id="path3875"
       d="M 273.472656 22.988281 L 273.472656 20.519531 L 267.722656 20.519531 L 267.722656 9.660156 L 265.253906 9.660156 L 265.253906 20.519531 L 261.894531 20.519531 L 261.894531 22.988281 L 265.253906 22.988281 L 265.253906 45.300781 L 267.722656 45.300781 L 267.722656 22.988281 Z M 273.472656 22.988281 "
       style=" stroke:none;fill-rule:nonzero;fill:rgb(0%,0%,0%);fill-opacity:1;" />
    <path
       id="path3877"
       d="M 297.132812 36.003906 L 297.132812 20.519531 L 294.726562 20.519531 L 294.726562 36.003906 C 294.726562 40.921875 292.429688 43.378906 287.835938 43.378906 C 285.46875 43.378906 283.75 42.738281 282.679688 41.457031 C 281.636719 40.175781 281.117188 38.359375 281.117188 36.003906 L 281.117188 20.519531 L 278.648438 20.519531 L 278.648438 36.003906 C 278.648438 39.078125 279.445312 41.480469 281.039062 43.207031 C 282.640625 44.925781 284.90625 45.785156 287.835938 45.785156 C 290.792969 45.785156 293.089844 44.90625 294.726562 43.144531 C 296.328125 41.425781 297.132812 39.046875 297.132812 36.003906 Z M 297.132812 36.003906 "
       style=" stroke:none;fill-rule:nonzero;fill:rgb(0%,0%,0%);fill-opacity:1;" />
    <path
       id="path3879"
       d="M 328.679688 45.300781 L 328.679688 0.894531 L 326.210938 0.894531 L 326.210938 25.019531 C 323.449219 21.78125 320.089844 20.160156 316.132812 20.160156 C 312.527344 20.160156 309.484375 21.402344 307.007812 23.878906 C 304.570312 26.316406 303.351562 29.339844 303.351562 32.941406 C 303.351562 36.546875 304.589844 39.589844 307.070312 42.066406 C 309.507812 44.503906 312.527344 45.722656 316.132812 45.722656 C 320.214844 45.722656 323.574219 44.105469 326.210938 40.863281 L 326.210938 45.300781 Z M 326.507812 32.941406 C 326.507812 35.816406 325.492188 38.277344 323.460938 40.316406 C 321.460938 42.316406 319.015625 43.316406 316.132812 43.316406 C 313.289062 43.316406 310.84375 42.300781 308.804688 40.269531 C 306.773438 38.230469 305.757812 35.785156 305.757812 32.941406 C 305.757812 30.058594 306.777344 27.597656 308.820312 25.566406 C 310.820312 23.566406 313.257812 22.566406 316.132812 22.566406 C 318.976562 22.566406 321.414062 23.589844 323.445312 25.628906 C 325.484375 27.660156 326.507812 30.097656 326.507812 32.941406 Z M 326.507812 32.941406 "
       style=" stroke:none;fill-rule:nonzero;fill:rgb(0%,0%,0%);fill-opacity:1;" />
    <path
       id="path3881"
       d="M 339.6875 14.097656 C 339.363281 12.777344 338.703125 12.113281 337.703125 12.113281 C 336.378906 12.363281 335.71875 13.027344 335.71875 14.097656 C 335.757812 14.703125 335.960938 15.183594 336.328125 15.535156 C 336.804688 15.902344 337.265625 16.082031 337.703125 16.082031 C 339.023438 16.082031 339.6875 15.421875 339.6875 14.097656 Z M 338.90625 20.519531 L 336.4375 20.519531 L 336.4375 45.300781 L 338.90625 45.300781 Z M 338.90625 20.519531 "
       style=" stroke:none;fill-rule:nonzero;fill:rgb(0%,0%,0%);fill-opacity:1;" />
    <path
       id="path3883"
       d="M 370.734375 32.941406 C 370.734375 29.339844 369.492188 26.296875 367.015625 23.816406 C 364.535156 21.339844 361.515625 20.097656 357.953125 20.097656 C 354.359375 20.097656 351.335938 21.359375 348.890625 23.878906 C 346.410156 26.359375 345.171875 29.378906 345.171875 32.941406 C 345.171875 36.546875 346.410156 39.589844 348.890625 42.066406 C 351.335938 44.503906 354.359375 45.722656 357.953125 45.722656 C 361.554688 45.722656 364.597656 44.484375 367.078125 42.003906 C 369.515625 39.566406 370.734375 36.546875 370.734375 32.941406 Z M 368.34375 32.941406 C 368.34375 35.816406 367.320312 38.277344 365.28125 40.316406 C 363.28125 42.316406 360.835938 43.316406 357.953125 43.316406 C 355.117188 43.316406 352.679688 42.300781 350.640625 40.269531 C 348.597656 38.230469 347.578125 35.785156 347.578125 32.941406 C 347.578125 30.140625 348.617188 27.699219 350.703125 25.613281 C 352.742188 23.542969 355.160156 22.503906 357.953125 22.503906 C 360.878906 22.503906 363.34375 23.527344 365.34375 25.566406 C 367.34375 27.566406 368.34375 30.027344 368.34375 32.941406 Z M 368.34375 32.941406 "
       style=" stroke:none;fill-rule:nonzero;fill:rgb(0%,0%,0%);fill-opacity:1;" />
    <path
       id="path3885"
       d="M 391.445312 38.519531 C 391.445312 36.28125 390.585938 34.5 388.867188 33.175781 C 388.417969 32.863281 387.75 32.5 386.867188 32.082031 C 385.992188 31.65625 384.875 31.203125 383.523438 30.722656 C 381.960938 30.203125 380.820312 29.660156 380.101562 29.097656 C 379.214844 28.378906 378.773438 27.464844 378.773438 26.347656 C 378.773438 23.828125 380.214844 22.566406 383.101562 22.566406 C 385.214844 22.566406 386.953125 23.246094 388.320312 24.597656 L 390.117188 23.035156 C 388.199219 21.121094 385.859375 20.160156 383.101562 20.160156 C 381.101562 20.160156 379.480469 20.78125 378.242188 22.019531 C 376.960938 23.21875 376.320312 24.660156 376.320312 26.347656 C 376.320312 28.308594 376.960938 29.808594 378.242188 30.847656 C 379.117188 31.566406 380.554688 32.285156 382.554688 33.003906 C 383.636719 33.402344 384.546875 33.75 385.289062 34.050781 C 386.027344 34.355469 386.601562 34.625 387.007812 34.863281 C 388.320312 35.90625 388.976562 37.125 388.976562 38.519531 C 388.976562 41.71875 387.09375 43.316406 383.335938 43.316406 C 381.617188 43.316406 380.257812 42.9375 379.257812 42.175781 C 378.296875 41.5 377.480469 40.542969 376.804688 39.300781 L 374.695312 40.566406 C 376.621094 44.046875 379.5 45.785156 383.335938 45.785156 C 385.574219 45.785156 387.496094 45.105469 389.101562 43.738281 C 390.664062 42.417969 391.445312 40.675781 391.445312 38.519531 Z M 391.445312 38.519531 "
       style=" stroke:none;fill-rule:nonzero;fill:rgb(0%,0%,0%);fill-opacity:1;" />
  </g>
</svg>
